<?xml version="1.0" encoding="utf-8"?>
<!-- Generator: Adobe Illustrator 21.1.0, SVG Export Plug-In . SVG Version: 6.00 Build 0)  -->
<svg version="1.1" id="Layer_1" xmlns="http://www.w3.org/2000/svg" xmlns:xlink="http://www.w3.org/1999/xlink" x="0px" y="0px"
	 viewBox="0 0 999.2 170.1" style="enable-background:new 0 0 999.2 170.1;" xml:space="preserve">
<style type="text/css">
	.st0{fill:#003580;}
	.st1{fill:#009FE3;}
</style>
<g>
	<path class="st0" d="M392.5,17.5c0-8.4,6.8-15.1,15.1-15.1c8.4,0,15.1,6.8,15.1,15.1c0,8.4-6.8,15.2-15.1,15.2
		C399.2,32.6,392.5,25.9,392.5,17.5z"/>
	<path class="st1" d="M630.8,118.2c0-8.4,6.8-15.1,15.1-15.1c8.3,0,15.1,6.8,15.1,15.1c0,8.4-6.8,15.1-15.1,15.1
		C637.6,133.4,630.8,126.6,630.8,118.2z"/>
	<path class="st0" d="M144.5,39.5C117,39.5,97,59.3,97,86.6c0,27.3,20,47.2,47.5,47.2c27.6,0,47.7-19.8,47.7-47.2
		C192.2,59.3,172.2,39.5,144.5,39.5z M144.5,111.7c-13,0-22-10.3-22-25.1c0-14.8,9-25.1,22-25.1c13.1,0,22.2,10.3,22.2,25.1
		C166.8,101.6,157.8,111.7,144.5,111.7z"/>
	<path class="st0" d="M363.2,88.9c-1.1-2-2.3-3.7-3.6-5.1l-0.8-0.9l0.9-0.8c1.3-1.3,2.6-2.9,3.8-4.8l24.3-36.1h-29.5L340,69.5
		c-1,1.5-3.1,2.3-6.3,2.3h-4.2V18.4c0-10.7-6.7-12.1-13.8-12.1h-12.3l0,126.1h26.1V94.6h2.5c3,0,5,0.3,5.9,1.9l14.4,27.2
		c4,7.4,8,8.6,15.6,8.6h20l-14.9-24.7L363.2,88.9z"/>
	<path class="st0" d="M490.1,39.2c-13.3,0-21.8,5.9-26.5,10.9l-1.6,1.6l-0.6-2.2c-1.4-5.3-6.1-8.3-13.2-8.3h-11.7l0.1,91h26v-42
		c0-4.1,0.5-7.7,1.6-10.9c2.9-9.8,10.9-15.9,21-15.9c8.1,0,11.3,4.3,11.3,15.3v39.6c0,9.4,4.4,13.8,13.8,13.8h12.3l-0.1-57.9
		C522.5,51.4,511.3,39.2,490.1,39.2z"/>
	<path class="st0" d="M407.9,41.3h-12.3l0.1,70.4h0v20.6h13.1c0.2,0,0.3,0,0.5,0l6.1,0h6.1v0h0.1l0-77.2
		C421.6,45.8,417.1,41.3,407.9,41.3z"/>
	<path class="st0" d="M246.5,39.5c-27.6,0-47.5,19.8-47.5,47.1c0,27.3,20,47.2,47.5,47.2c27.6,0,47.7-19.8,47.7-47.2
		C294.2,59.3,274.1,39.5,246.5,39.5z M246.5,111.7c-13,0-22.1-10.3-22.1-25.1c0-14.8,9.1-25.1,22.1-25.1c13.1,0,22.2,10.3,22.2,25.1
		C268.7,101.6,259.8,111.7,246.5,111.7z"/>
	<path class="st1" d="M802.8,39.5c-27.5,0-47.5,19.8-47.5,47.1c0,27.3,20,47.2,47.5,47.2c27.6,0,47.7-19.8,47.7-47.2
		C850.5,59.3,830.4,39.5,802.8,39.5z M802.8,111.7c-13,0-22.1-10.3-22.1-25.1c0-14.8,9.1-25.1,22.1-25.1c13.1,0,22.3,10.3,22.3,25.1
		C825,101.6,816,111.7,802.8,111.7z"/>
	<path class="st0" d="M608.6,41.1c-4.9,0-8.7,1.9-10.6,5.5l-0.7,1.4l-1.2-1c-4.2-3.6-11.7-7.9-23.9-7.9c-24.3,0-40.6,18.2-40.6,45.4
		c0,27.1,16.9,46,41.1,46c8.3,0,14.8-1.9,20-5.8l2-1.5v2.5c0,12.2-7.9,18.9-22.1,18.9c-6.9,0-13.2-1.7-17.4-3.2
		c-5.5-1.7-8.7-0.3-11,5.2l-2.1,5.1l-2.9,7.5l1.8,1c9.1,4.8,21,7.7,31.7,7.7c22.1,0,47.9-11.3,47.9-43.2l0.1-83.5H608.6z
		 M577.3,107.7c-14.2,0-19.2-12.4-19.2-24c0-5.1,1.3-21.8,17.8-21.8c8.2,0,19.3,2.4,19.3,22.6C595.1,103.7,585.4,107.7,577.3,107.7z
		"/>
	<path class="st0" d="M74.9,67.7l-3.8-2.1l3.3-2.8c3.9-3.3,10.4-10.8,10.4-23.8c0-19.8-15.4-32.6-39.2-32.6H18.5l0,0h-3.1
		c-7.1,0.3-12.7,6-12.8,13.1v6.2v93.7v12.5H15c0,0,0,0,0.1,0h31c26.4,0,43.5-14.4,43.5-36.7C89.7,83.2,84.1,72.9,74.9,67.7z
		 M26.8,42.5L26.8,42.5v-6.6c0-5.8,2.5-8.6,7.9-8.9h10.8c9.3,0,14.8,5.6,14.8,14.8c0,7.1-3.8,15.3-14.5,15.3h-19V42.5z M47.9,110.7
		l-21.1,0V92v-6.6c0-5.4,2.1-8.2,6.7-8.8h14.4c10.3,0,16.9,6.5,16.9,17C64.8,104.3,58.3,110.7,47.9,110.7z"/>
	<path class="st1" d="M966.4,39.5c-10.8,0-21.2,5-27.9,13.5l-1.9,2.4l-1.5-2.7c-4.8-8.8-13.1-13.2-24.6-13.2
		c-12.1,0-20.1,6.7-23.9,10.7l-2.5,2.7l-0.9-3.5c-1.4-5.1-5.9-7.8-12.7-7.8h-10.9l-0.1,90.7h24.8v-40c0-3.5,0.4-7,1.3-10.6
		c2.4-9.7,8.9-20.1,19.8-19.1c6.7,0.7,10,5.9,10,15.9v53.8h25v-40c0-4.4,0.4-7.7,1.4-11c2-9.2,8.8-18.7,19.3-18.7
		c7.6,0,10.5,4.3,10.5,15.9v40.5c0,9.2,4.1,13.3,13.2,13.3h11.6l0-57.9C996.6,51.3,986.4,39.5,966.4,39.5z"/>
	<path class="st1" d="M740.9,100.8c-0.1,0.1-10.8,11.3-24.8,11.3c-12.8,0-25.7-7.8-25.7-25.4c0-15.1,10-25.7,24.4-25.7
		c4.7,0,10,1.7,10.8,4.5l0.1,0.5c1.9,6.3,7.7,6.7,8.8,6.7h13.6V60.9c0-15.7-19.9-21.3-33.3-21.3c-28.6,0-49.5,20-49.5,47.4
		c0,27.5,20.6,47.4,48.9,47.4c24.6,0,38-16.2,38.1-16.3l0.7-0.9l-10.7-17.9L740.9,100.8z"/>
</g>
</svg>
