<svg xmlns="http://www.w3.org/2000/svg" viewBox="0 0 153.60001 21.12"><title>Asset 1</title><rect width="153.60001" height="21.12"/><path d="M10.59093,8.45466V9.94917h2.60333v1.25346H10.59093v2.55512H9V7.153h4.8692V8.45466Z" style="fill:#fff"/><path d="M24.1861,12.45608v1.30167H19.84722V7.153h1.59092v5.30308Z" style="fill:#fff"/><path d="M30.64623,12.79355a4.13643,4.13643,0,0,1-.72315-2.36228c0-1.73555.916-3.37469,2.9408-3.37469A2.48747,2.48747,0,0,1,35.03332,8.069a4.13643,4.13643,0,0,1,.72315,2.36228,4.00936,4.00936,0,0,1-.62673,2.26586A2.62142,2.62142,0,0,1,32.86388,13.806a2.45991,2.45991,0,0,1-2.21765-1.01241m1.157-3.71216a4.35514,4.35514,0,0,0-.19284,1.34988c0,.81957.14463,2.12123,1.25346,2.12123a.97892.97892,0,0,0,1.01241-.77136,3.97514,3.97514,0,0,0,.19284-1.34988,3.89377,3.89377,0,0,0-.241-1.49451.94316.94316,0,0,0-.9642-.62673,1.045,1.045,0,0,0-1.06062.77136" style="fill:#fff"/><path d="M49.64091,13.75775H48.05L46.94115,9.41886h0l-1.06062,4.33889H44.33782L42.55406,7.153h1.63914l1.06062,4.43531h0L46.36264,7.153h1.4463l1.157,4.43531h0l.04821-.28926,1.01241-4.146h1.30166Z" style="fill:#fff"/><path d="M77.36157,13.75775H76.4938V7.87614H74.5654V7.153H79.29v.72315H77.36157Z" style="fill:#fff"/><path d="M89.12478,13.75775l-1.25346-2.84438H85.99113v2.84438h-.86778V7.153h2.55512a2.39174,2.39174,0,0,1,1.54271.38568,1.85045,1.85045,0,0,1,.72315,1.4463,1.70825,1.70825,0,0,1-1.25346,1.68734l1.34988,3.03722h-.916Zm-1.54271-3.51932a1.47968,1.47968,0,0,0,1.157-.38568,1.1618,1.1618,0,0,0,.33747-.86778.99219.99219,0,0,0-.4821-.916,1.58567,1.58567,0,0,0-.9642-.19284H85.94292v2.36228Z" style="fill:#fff"/><path d="M101.129,13.75775h-.86778l-.67494-1.92839H97.07941l-.62673,1.92839h-.72315L97.94719,7.153h.9642Zm-2.79617-5.737-1.06062,3.18185h2.073Z" style="fill:#fff"/><path d="M107.49273,7.153h2.16944a2.89353,2.89353,0,0,1,2.36228.916,3.53206,3.53206,0,0,1,.81957,2.36228,3.84137,3.84137,0,0,1-.72315,2.26586,2.52662,2.52662,0,0,1-2.16944,1.06062h-2.41049V7.153Zm2.12123,5.8816a2.16129,2.16129,0,0,0,1.88018-.81957,3.19762,3.19762,0,0,0,.4821-1.78376,3.08235,3.08235,0,0,0-.62673-1.92839,1.96229,1.96229,0,0,0-1.73556-.67494H108.3605V13.0346Z" style="fill:#fff"/><path d="M123.73945,13.75775h-4.3871V7.153H123.643v.72315h-3.47111v2.073h2.748v.67494h-2.748V13.0346h3.56753v.72315Z" style="fill:#fff"/><path d="M133.91173,13.75775l-1.25346-2.84438h-1.88018v2.84438h-.86778V7.153h2.55512a2.39177,2.39177,0,0,1,1.54272.38568,1.85045,1.85045,0,0,1,.72315,1.4463,1.70825,1.70825,0,0,1-1.25346,1.68734l1.34987,3.03722h-.916ZM132.369,10.23843a1.47967,1.47967,0,0,0,1.157-.38568,1.1618,1.1618,0,0,0,.33747-.86778.99218.99218,0,0,0-.4821-.916,1.58569,1.58569,0,0,0-.9642-.19284h-1.68734v2.36228Z" style="fill:#fff"/><path d="M140.42006,11.78114a1.94961,1.94961,0,0,0,2.02482,1.34988,2.07085,2.07085,0,0,0,1.20525-.33747,1.17173,1.17173,0,0,0,.43389-.86778c0-.67494-.57852-.916-1.157-1.06062l-1.10882-.28926a2.60774,2.60774,0,0,1-1.25346-.53031,1.643,1.643,0,0,1-.53031-1.20525c0-1.25346,1.10882-1.832,2.31407-1.832A2.32973,2.32973,0,0,1,144.759,8.59929l-.77136.19284a1.68317,1.68317,0,0,0-1.68734-1.157c-.62672,0-1.4463.33747-1.4463,1.06062s.57852.916,1.25346,1.06062l1.01241.241a2.90991,2.90991,0,0,1,1.25346.53031A1.55482,1.55482,0,0,1,145,11.82935a1.85043,1.85043,0,0,1-.77136,1.49451,2.85165,2.85165,0,0,1-1.78377.4821,2.58613,2.58613,0,0,1-2.748-1.88018Z" style="fill:#fff"/><path d="M66.36973,13.806H59.62035V7.05658h6.74938Z" style="fill:#e92126"/></svg>