<?xml version="1.0" encoding="utf-8"?>
<!-- Generator: Adobe Illustrator 21.1.0, SVG Export Plug-In . SVG Version: 6.00 Build 0)  -->
<svg version="1.1" id="Layer_1" xmlns="http://www.w3.org/2000/svg" xmlns:xlink="http://www.w3.org/1999/xlink" x="0px" y="0px"
	 viewBox="0 0 100 22" style="enable-background:new 0 0 100 22;" xml:space="preserve">
<style type="text/css">
	.st0{fill:#002C67;}
	.st1{fill:#F67D2A;}
</style>
<path class="st0" d="M11.9,0.6c-3,0-5.8,1.1-7.9,3.2C1.8,6,0.5,9.1,0.5,12.3c0,5.1,3.3,8.4,8.3,8.4c3,0,5.8-1.1,7.9-3.2
	c2.2-2.2,3.5-5.3,3.5-8.4C20.2,4.1,16.8,0.6,11.9,0.6z M8.2,4.6c1-0.9,2-1.4,3.2-1.4c2.7,0,4,1.9,4,5.8c0,3.1-1.1,6.1-2.9,7.9
	c-0.9,0.9-2,1.4-3.2,1.4c-2.6,0-4-2-4-5.6C5.3,9.4,6.5,6.3,8.2,4.6z"/>
<path class="st0" d="M27.7,16.7c0-0.2,0.1-0.5,0.1-0.8l1.3-5.8h-0.4h-4l-1.3,5.8c-0.6,2.9-0.6,2.9-2.8,3.1h-0.4l-0.3,1.7h9.9
	l0.3-1.7h-0.4C27.6,18.8,27.3,18.8,27.7,16.7z"/>
<path class="st0" d="M41.7,19.7c-1.1-0.1-2.2-1-2.6-1.6c-0.4-0.6-1-1.7-1.6-3.2c-0.5-1.1-1-2.6-1.3-3.5c2.4-0.8,4.2-2.5,4.5-4.6
	c0-0.3,0.1-0.5,0.1-0.8c0-3.2-2.3-4.9-6.7-4.9h-7.4h-0.4L26.1,2l-0.3,2.1l7.1,0.1c2,0.1,3.2,0.3,3.2,1.8c0,1.7-1,3.3-2.4,3.7
	c0,0-0.9,0.3-1.7,0.3h-0.8l-0.3,2.5h0.4c0.6,0,0.8,0.1,1,0.9l0.2,0.7c0.4,1.3,0.9,2.7,1.4,3.7c1,2,2.3,3.4,5.5,3.5h2.7l0.1-1.7
	L41.7,19.7z"/>
<path class="st0" d="M78.6,1.1l0.1-0.4h-0.4h-0.7l-0.2,0.2c-0.5,0.5-0.6,0.6-1.1,0.6H48.1c-0.7,0-0.8,0-1-0.5L47,0.7h-1.1L45,4.1
	l-0.7,2.8h0.4H46l0.1-0.3c0.5-1.1,0.8-1.5,1.1-1.9c0,0,0.1-0.2,0.2-0.2c0.4-0.2,2-0.2,3.6-0.1C50.9,5.1,48.9,16,48.9,16
	c-0.6,2.9-0.6,2.9-2.8,3h-0.4l-0.3,1.7h9.9l0.3-1.7h-0.4c-2.1-0.1-2.4-0.2-2.1-2.2c0-0.2,0.1-0.5,0.1-0.8c0,0,2.2-11,2.3-11.8
	c0.8,0,19.5,0,19.6,0s0.2,0.1,0.2,0.1c0.4,0.1,0.7,0.2,0.6,2.3L76,7l1.8-0.2L78,5.6C78.2,3.9,78.4,2.1,78.6,1.1z"/>
<path class="st1" d="M75.2,14.9L75,15.2c-0.6,1.2-1.2,2.1-1.9,2.7l0,0c-0.3,0.3-1.1,0.7-2.9,0.7c-1.2,0-1.8-0.1-2-0.4
	s-0.2-0.7-0.1-1.7c0-0.1,0-0.1,0-0.2c0,0,0.6-3.3,0.9-4.5c0.5,0,1.6,0,1.6,0c2.1,0,2.1,0,2,2v0.4h1.8l0.9-4.6h-0.4h-9.7L64,16
	c-0.6,2.9-0.7,2.9-2.5,3h-0.4l-0.4,1.7H75l0.1-0.3c0.5-1.2,1.7-4.4,1.8-4.8l0.1-0.4L75.2,14.9z"/>
<path class="st0" d="M97.8,15l-1.3-0.4l-0.2,0.3c-2,3.1-3.6,4.3-5.8,4.3c-3.7,0-4.5-3.6-4.5-6.7c0-2.9,1-5.5,2.8-7.3
	c1.3-1.3,3-2,4.8-2c2.5,0,3.6,1.2,3.8,3.9v0.3l1.8-0.1V6.9c0.1-1.4,0.2-3.1,0.3-4.6V2l-0.2-0.1c-0.7-0.2-2.6-0.8-5.2-0.8
	c-3.7,0-7.2,1.4-9.6,3.7c-2.2,2.2-3.4,5-3.4,8.1c0,5.1,3.4,8.3,8.9,8.3c2.2,0,4-0.5,5-0.7l0.6-0.1l0.1-0.2c0.5-0.8,1-2.1,1.5-3.2
	l0.9-1.9L97.8,15z"/>
</svg>
